<svg width="32" height="32" viewBox="0 0 32 32" fill="none" xmlns="http://www.w3.org/2000/svg">
  <rect width="32" height="32" rx="6" fill="url(#gradient)"/>
  <path d="M8 22V10H14C15.1 10 16.1 10.4 16.9 11.1C17.7 11.8 18 12.8 18 14C18 14.8 17.8 15.5 17.3 16.1C16.8 16.7 16.2 17.1 15.5 17.3L18.5 22H15.5L12.8 17.5H11V22H8ZM11 15H14C14.6 15 15.1 14.8 15.4 14.4C15.7 14 16 13.5 16 13C16 12.5 15.8 12 15.4 11.6C15.1 11.2 14.6 11 14 11H11V15Z" fill="white"/>
  <defs>
    <linearGradient id="gradient" x1="0" y1="0" x2="32" y2="32" gradientUnits="userSpaceOnUse">
      <stop offset="0%" stop-color="#047857"/>
      <stop offset="100%" stop-color="#059669"/>
    </linearGradient>
  </defs>
</svg>

